<svg width="15" height="15" viewBox="0 0 15 15" fill="none" xmlns="http://www.w3.org/2000/svg" preserveAspectRatio="none" >
    <path fill-rule="evenodd" clip-rule="evenodd" d="M7.5 0C9.433 0 11 1.567 11 3.5C11 5.433 9.433 7 7.5 7C5.567 7 4 5.433 4 3.5C4 1.567 5.567 0 7.5 0ZM15 12.5C15 10.567 11.642 9 7.5 9C3.358 9 0 10.567 0 12.5V15H15V12.5ZM7.5 10C11.09 10 14 11.12 14 12.5V14H1V12.5C1 11.12 3.91 10 7.5 10ZM5 3.5C5 2.11929 6.11929 1 7.5 1C8.88071 1 10 2.11929 10 3.5C10 4.88071 8.88071 6 7.5 6C6.11929 6 5 4.88071 5 3.5Z" fill="#212165"/>
</svg>
