<?xml version="1.0" encoding="UTF-8"?>
<svg width="24px" height="24px" viewBox="0 0 24 24" version="1.1" xmlns="http://www.w3.org/2000/svg" xmlns:xlink="http://www.w3.org/1999/xlink" preserveAspectRatio="none">
    <title>akar-icons:instagram-fill</title>
    <g id="Recursos" stroke="none" stroke-width="1" fill="none" fill-rule="evenodd">
        <g id="Material" transform="translate(-1078.000000, -96.000000)">
            <g id="akar-icons:instagram-fill" transform="translate(1078.000000, 96.000000)">
                <rect id="ViewBox" x="0" y="0" width="24" height="24"></rect>
                <g id="Group" transform="translate(1.000000, 1.000000)" fill="#212165">
                    <path d="M6.465,0.066 C7.638,0.012 8.012,0 11,0 C13.988,0 14.362,0.013 15.534,0.066 C16.706,0.119 17.506,0.306 18.206,0.577 C18.939,0.854 19.604,1.287 20.154,1.847 C20.714,2.396 21.146,3.06 21.422,3.794 C21.694,4.494 21.88,5.294 21.934,6.464 C21.988,7.639 22,8.013 22,11 C22,13.988 21.987,14.362 21.934,15.535 C21.881,16.705 21.694,17.505 21.422,18.205 C21.1459917,18.939094 20.7132804,19.6042 20.154,20.154 C19.604,20.714 18.939,21.146 18.206,21.422 C17.506,21.694 16.706,21.88 15.536,21.934 C14.362,21.988 13.988,22 11,22 C8.012,22 7.638,21.987 6.465,21.934 C5.295,21.881 4.495,21.694 3.795,21.422 C3.06092052,21.1459629 2.39582044,20.7132554 1.846,20.154 C1.28637995,19.6046699 0.853314699,18.9398858 0.577,18.206 C0.306,17.506 0.12,16.706 0.066,15.536 C0.012,14.361 0,13.987 0,11 C0,8.012 0.013,7.638 0.066,6.466 C0.119,5.294 0.306,4.494 0.577,3.794 C0.853722782,3.06008142 1.28711885,2.39531328 1.847,1.846 C2.39604046,1.2865012 3.06047196,0.85344338 3.794,0.577 C4.494,0.306 5.294,0.12 6.464,0.066 L6.465,0.066 Z M15.445,2.046 C14.285,1.993 13.937,1.982 11,1.982 C8.063,1.982 7.715,1.993 6.555,2.046 C5.482,2.095 4.9,2.274 4.512,2.425 C3.999,2.625 3.632,2.862 3.247,3.247 C2.88204484,3.60205149 2.60118032,4.03428217 2.425,4.512 C2.274,4.9 2.095,5.482 2.046,6.555 C1.993,7.715 1.982,8.063 1.982,11 C1.982,13.937 1.993,14.285 2.046,15.445 C2.095,16.518 2.274,17.1 2.425,17.488 C2.601,17.965 2.882,18.398 3.247,18.753 C3.602,19.118 4.035,19.399 4.512,19.575 C4.9,19.726 5.482,19.905 6.555,19.954 C7.715,20.007 8.062,20.018 11,20.018 C13.938,20.018 14.285,20.007 15.445,19.954 C16.518,19.905 17.1,19.726 17.488,19.575 C18.001,19.375 18.368,19.138 18.753,18.753 C19.118,18.398 19.399,17.965 19.575,17.488 C19.726,17.1 19.905,16.518 19.954,15.445 C20.007,14.285 20.018,13.937 20.018,11 C20.018,8.063 20.007,7.715 19.954,6.555 C19.905,5.482 19.726,4.9 19.575,4.512 C19.375,3.999 19.138,3.632 18.753,3.247 C18.3979269,2.88207114 17.9657026,2.60121074 17.488,2.425 C17.1,2.274 16.518,2.095 15.445,2.046 Z M9.595,14.391 C11.2131616,15.0645949 13.0817789,14.4995799 14.0556093,13.0422428 C15.0294397,11.5849056 14.8364834,9.64229385 13.595,8.405 C12.5452767,7.35593301 10.9670559,7.04232952 9.59600189,7.61037116 C8.22494786,8.1784128 7.33094901,9.51628207 7.33072969,11.0003509 C7.33051045,12.4844198 8.22411389,13.8225532 9.595,14.391 L9.595,14.391 Z M7.002,7.002 C8.43034782,5.57365214 10.5122102,5.01581878 12.4633696,5.53863037 C14.414529,6.06144195 15.938558,7.58547096 16.4613696,9.5366304 C16.9841812,11.4877898 16.4263479,13.5696522 14.998,14.998 C12.7899656,17.2060344 9.21003447,17.2060343 7.00200006,14.9979999 C4.79396565,12.7899655 4.79396563,9.21003444 7.002,7.002 L7.002,7.002 Z M17.908,6.188 C18.2622242,5.85385086 18.4067613,5.35353682 18.2853037,4.88196661 C18.1638461,4.41039639 17.7956036,4.04215386 17.3240334,3.92069627 C16.8524632,3.79923867 16.3521491,3.94377583 16.018,4.298 C15.5217257,4.82408946 15.5337581,5.64944355 16.0451573,6.16084274 C16.5565565,6.67224193 17.3819105,6.68427427 17.908,6.188 L17.908,6.188 Z" id="Shape"></path>
                </g>
            </g>
        </g>
    </g>
</svg>