<?xml version="1.0" encoding="UTF-8"?>
<svg width="24px" height="24px" viewBox="0 0 24 24" version="1.1" xmlns="http://www.w3.org/2000/svg" xmlns:xlink="http://www.w3.org/1999/xlink" preserveAspectRatio="none">
    <title>jam:facebook-square</title>
    <g id="Recursos" stroke="none" stroke-width="1" fill="none" fill-rule="evenodd">
        <g id="Material" transform="translate(-1118.000000, -96.000000)">
            <g id="jam:facebook-square" transform="translate(1118.000000, 96.000000)">
                <rect id="ViewBox" x="0" y="0" width="24" height="24"></rect>
                <path d="M10.695,8.937 L10.695,10.314 L9.687,10.314 L9.687,11.997 L10.695,11.997 L10.695,17 L12.767,17 L12.767,11.997 L14.157,11.997 C14.157,11.997 14.288,11.19 14.351,10.307 L12.775,10.307 L12.775,9.157 C12.775,8.984 13.001,8.753 13.225,8.753 L14.353,8.753 L14.353,7 L12.818,7 C10.644,7 10.695,8.685 10.695,8.937 Z" id="Path" fill="#212165" fill-rule="nonzero"></path>
                <path d="M6,4 C4.8954305,4 4,4.8954305 4,6 L4,18 C4,19.1045695 4.8954305,20 6,20 L18,20 C19.1045695,20 20,19.1045695 20,18 L20,6 C20,4.8954305 19.1045695,4 18,4 L6,4 Z M6,2 L18,2 C20.209139,2 22,3.790861 22,6 L22,18 C22,20.209139 20.209139,22 18,22 L6,22 C3.790861,22 2,20.209139 2,18 L2,6 C2,3.790861 3.790861,2 6,2 Z" id="Shape" fill="#212165" fill-rule="nonzero"></path>
            </g>
        </g>
    </g>
</svg>