<svg width="19" height="19" viewBox="0 0 19 19" fill="none" xmlns="http://www.w3.org/2000/svg" preserveAspectRatio="none" >
<path fill-rule="evenodd" clip-rule="evenodd" d="M5.866 10H14C14.6531 10.0003 15.2651 9.68142 15.639 9.146L18.553 5.26C19.0389 4.66106 19.1371 3.83612 18.8054 3.13985C18.4737 2.44359 17.7712 2.00007 17 2H2.849L2 0H0V1H1.338L4.97 9.556L4.25 11.03C3.90635 11.6496 3.91621 12.4048 4.27591 13.0153C4.6356 13.6258 5.29145 14.0003 6 14H17V13H6C5.44772 13 5 12.5523 5 12L5.1 11.56L5.866 10ZM17 3H3.273L5.82 9H14C14.3153 9.00048 14.6122 8.85131 14.8 8.598L17.8 4.598H17.801C18.0272 4.29485 18.063 3.89002 17.8935 3.55189C17.724 3.21376 17.3782 3.00019 17 3ZM6 15C7.10457 15 8 15.8954 8 17C8 18.1046 7.10457 19 6 19C4.89543 19 4 18.1046 4 17C4 15.8954 4.89543 15 6 15ZM17 17C17 15.8954 16.1046 15 15 15C13.8954 15 13 15.8954 13 17C13 18.1046 13.8954 19 15 19C16.1046 19 17 18.1046 17 17ZM14 17C14 16.4477 14.4477 16 15 16C15.5523 16 16 16.4477 16 17C16 17.5523 15.5523 18 15 18C14.4477 18 14 17.5523 14 17ZM5 17C5 16.4477 5.44772 16 6 16C6.55228 16 7 16.4477 7 17C7 17.5523 6.55228 18 6 18C5.44772 18 5 17.5523 5 17Z" fill="#212165"/>
</svg>
