<?xml version="1.0" encoding="UTF-8"?>
<svg width="24px" height="24px" viewBox="0 0 24 24" version="1.1" xmlns="http://www.w3.org/2000/svg" xmlns:xlink="http://www.w3.org/1999/xlink" preserveAspectRatio="none">
    <title>mdi-light:delete</title>
    <g id="Recursos" stroke="none" stroke-width="1" fill="none" fill-rule="evenodd">
        <g id="Material" transform="translate(-728.000000, -150.000000)">
            <g id="mdi-light:delete" transform="translate(728.000000, 150.000000)">
                <rect id="ViewBox" x="0" y="0" width="24" height="24"></rect>
                <path d="M18,19 C18,20.6568542 16.6568542,22 15,22 L8,22 C6.34314575,22 5,20.6568542 5,19 L5,7 L4,7 L4,4 L8.5,4 L9.5,3 L13.5,3 L14.5,4 L19,4 L19,7 L18,7 L18,19 Z M6,7 L6,19 C6,20.1045695 6.8954305,21 8,21 L15,21 C16.1045695,21 17,20.1045695 17,19 L17,7 L6,7 Z M18,6 L18,5 L14,5 L13,4 L10,4 L9,5 L5,5 L5,6 L18,6 Z M8,9 L9,9 L9,19 L8,19 L8,9 Z M14,9 L15,9 L15,19 L14,19 L14,9 Z" id="Shape" fill="#212165" fill-rule="nonzero"></path>
            </g>
        </g>
    </g>
</svg>