<svg xmlns="http://www.w3.org/2000/svg" viewBox="0 0 857.3 580.3"><defs><style>.cls-1{fill:#222165;}.cls-2{fill:#d7ff00;}.cls-3{fill:#cf0;}</style></defs><g id="Layer_2" data-name="Layer 2"><g id="Capa_1" data-name="Capa 1"><path class="cls-1" d="M88.32,515.87,78.49,525a21.34,21.34,0,0,0-7.77-5.64,25,25,0,0,0-10-2,29.18,29.18,0,0,0-14.43,3.86,28.58,28.58,0,0,0-10.73,10.21A25.75,25.75,0,0,0,31.74,545a21.58,21.58,0,0,0,6.75,16.25q6.75,6.46,17.31,6.47a30.53,30.53,0,0,0,19.56-6.55l8,10.51a48,48,0,0,1-28.41,8.66q-11.34,0-19.29-4.31a32.42,32.42,0,0,1-12.76-12.64,35.52,35.52,0,0,1-4.82-18.07,38.43,38.43,0,0,1,5.7-20,41.23,41.23,0,0,1,15.43-15.06,42.35,42.35,0,0,1,21.22-5.51A39.29,39.29,0,0,1,88.32,515.87Z" transform="translate(0 0)"/><path class="cls-1" d="M188.18,504.74q14.81,0,24.45,9.54t9.63,24.21a41.93,41.93,0,0,1-5.7,21.19A39.85,39.85,0,0,1,201.4,575a43.55,43.55,0,0,1-21.73,5.33q-15.36,0-24.53-9.1t-9.17-24a41.81,41.81,0,0,1,11-29Q169.16,504.74,188.18,504.74Zm-.49,12.77a27.42,27.42,0,0,0-14.11,3.74A27.8,27.8,0,0,0,163.29,532a29.4,29.4,0,0,0-3.92,14.5,21.91,21.91,0,0,0,5.43,15q5.43,6.16,15.6,6.16a27.16,27.16,0,0,0,20-8.31,27.63,27.63,0,0,0,8.23-20.2q0-9.82-5.79-15.74T187.69,517.51Z" transform="translate(0 0)"/><path class="cls-1" d="M322.36,504.74q14.82,0,24.45,9.54t9.63,24.21a42,42,0,0,1-5.69,21.19A39.92,39.92,0,0,1,335.59,575a43.58,43.58,0,0,1-21.74,5.33q-15.36,0-24.52-9.1t-9.17-24a41.8,41.8,0,0,1,10.95-29Q303.33,504.74,322.36,504.74Zm-.49,12.77a27.45,27.45,0,0,0-14.11,3.74A27.87,27.87,0,0,0,297.47,532a29.38,29.38,0,0,0-3.91,14.5,22,22,0,0,0,5.42,15q5.43,6.16,15.6,6.16a27.16,27.16,0,0,0,20-8.31,27.64,27.64,0,0,0,8.24-20.2q0-9.82-5.8-15.74T321.87,517.51Z" transform="translate(0 0)"/><path class="cls-1" d="M423.68,506.55h13.59L429,566.12h22.33l-1.57,12.37H413.85Z" transform="translate(0 0)"/><path class="cls-2" d="M510.92,506.55h12.33l4.17,46.61,22-46.61h10.18l8.57,45.38,16-45.38h13.06l-25.47,71.94h-11l-9-47.63L529.2,578.49H517.43Z" transform="translate(0 0)"/><path class="cls-2" d="M657,506.55h38.68l-1.65,12.77H669l-2.06,14.86h25.23l-1.65,12.67H665.14l-2.65,19.07H688l-1.64,12.57H647.2Z" transform="translate(0 0)"/><path class="cls-2" d="M750,506.55h13.69l11.2,28.81,20.44-28.81h15.5l-30.7,43.19-3.87,28.75H762.81l4-28.76Z" transform="translate(0 0)"/><rect class="cls-3" x="485.35" y="298.21" width="40.36" height="176.86" transform="translate(-130.7 402.62) rotate(-38.85)"/><rect class="cls-3" x="483.68" y="299.27" width="409.93" height="40.36" transform="translate(-41.93 525.71) rotate(-40.65)"/><rect class="cls-3" x="311.43" y="386.58" width="40.36" height="87.84" transform="translate(-208.24 368.4) rotate(-45.83)"/><path class="cls-1" d="M200.25,440.4a217.16,217.16,0,0,1-53.16-6.51c-40.57-10.22-65-29.37-68.34-32.12C30.19,363.23,3.05,310.22.25,248.46c-2.66-58.52,16.8-102.31,19-107.11,1.95-4.19,8.85-18,9.63-19.56l.5-1,.6-.92c.78-1.21,2-3.2,3.22-5.07,2-3.17,2.87-4.54,3.37-5.28,43-63.65,93.28-100,149.42-107.9,77.63-11,136.42,37.2,138.89,39.26l-25.86,31L312,56.38,299.11,71.92c-.48-.39-48.17-38.94-107.86-30.27-44.2,6.41-85,36.85-121.21,90.47-.3.45-1.69,2.65-2.71,4.27l-2.81,4.43c-2.34,4.67-7.3,14.64-8.64,17.52-6.08,13.12-17.12,48.46-15.32,88.29,2.29,50.52,23.63,92.11,63.4,123.63l.49.39c1.15.93,20.9,16.56,54.49,24.6,46.06,11,95.36,3.32,146.54-22.86,6.2-3.17,29.77-18,38.63-27.55l1-1.12,1.18-.94c.52-.42,55.58-45,198.34-199.48l29.64,27.39C438.38,317.77,381.48,366.12,372.65,373.39c-14.46,15-42.06,31.48-48.79,34.93-33.26,17-66.7,27.38-99.38,30.81A233.06,233.06,0,0,1,200.25,440.4Z" transform="translate(0 0)"/><rect class="cls-3" x="152.92" y="132.99" width="40.36" height="287.38" transform="translate(-146.61 211.13) rotate(-46.38)"/></g></g></svg>