<svg width="22" height="22" viewBox="0 0 22 22" fill="none" xmlns="http://www.w3.org/2000/svg" preserveAspectRatio="none" >
<path fill-rule="evenodd" clip-rule="evenodd" d="M17.6 0H4.4C1.96995 0 0 1.96995 0 4.4V17.6C0 20.0301 1.96995 22 4.4 22H17.6C20.0301 22 22 20.0301 22 17.6V4.4C22 1.96995 20.0301 0 17.6 0ZM2.2 4.4C2.2 3.18497 3.18497 2.2 4.4 2.2H17.6C18.815 2.2 19.8 3.18497 19.8 4.4V17.6C19.8 18.815 18.815 19.8 17.6 19.8H4.4C3.18497 19.8 2.2 18.815 2.2 17.6V4.4Z" fill="#252525" fill-opacity="0.8"/>
</svg>
