<svg width="20" height="20" viewBox="0 0 20 20" fill="none" xmlns="http://www.w3.org/2000/svg" preserveAspectRatio="none" >
<path fill-rule="evenodd" clip-rule="evenodd" d="M5.87727 0.06C6.94364 0.0109091 7.28364 0 10 0C12.7164 0 13.0564 0.0118182 14.1218 0.06C15.1873 0.108182 15.9145 0.278182 16.5509 0.524545C17.2173 0.776364 17.8218 1.17 18.3218 1.67909C18.8309 2.17818 19.2236 2.78182 19.4745 3.44909C19.7218 4.08545 19.8909 4.81273 19.94 5.87636C19.9891 6.94455 20 7.28455 20 10C20 12.7164 19.9882 13.0564 19.94 14.1227C19.8918 15.1864 19.7218 15.9136 19.4745 16.55C19.2236 17.2174 18.8303 17.822 18.3218 18.3218C17.8218 18.8309 17.2173 19.2236 16.5509 19.4745C15.9145 19.7218 15.1873 19.8909 14.1236 19.94C13.0564 19.9891 12.7164 20 10 20C7.28364 20 6.94364 19.9882 5.87727 19.94C4.81364 19.8918 4.08636 19.7218 3.45 19.4745C2.78266 19.2236 2.17802 18.8302 1.67818 18.3218C1.16944 17.8224 0.775741 17.2181 0.524545 16.5509C0.278182 15.9145 0.109091 15.1873 0.06 14.1236C0.0109091 13.0555 0 12.7155 0 10C0 7.28364 0.0118182 6.94364 0.06 5.87818C0.108182 4.81273 0.278182 4.08545 0.524545 3.44909C0.776112 2.78189 1.17011 2.17756 1.67909 1.67818C2.17822 1.16955 2.78225 0.775858 3.44909 0.524545C4.08545 0.278182 4.81273 0.109091 5.87636 0.06H5.87727ZM14.0409 1.86C12.9864 1.81182 12.67 1.80182 10 1.80182C7.33 1.80182 7.01364 1.81182 5.95909 1.86C4.98364 1.90455 4.45455 2.06727 4.10182 2.20455C3.63545 2.38636 3.30182 2.60182 2.95182 2.95182C2.62004 3.27459 2.36471 3.66753 2.20455 4.10182C2.06727 4.45455 1.90455 4.98364 1.86 5.95909C1.81182 7.01364 1.80182 7.33 1.80182 10C1.80182 12.67 1.81182 12.9864 1.86 14.0409C1.90455 15.0164 2.06727 15.5455 2.20455 15.8982C2.36455 16.3318 2.62 16.7255 2.95182 17.0482C3.27455 17.38 3.66818 17.6355 4.10182 17.7955C4.45455 17.9327 4.98364 18.0955 5.95909 18.14C7.01364 18.1882 7.32909 18.1982 10 18.1982C12.6709 18.1982 12.9864 18.1882 14.0409 18.14C15.0164 18.0955 15.5455 17.9327 15.8982 17.7955C16.3645 17.6136 16.6982 17.3982 17.0482 17.0482C17.38 16.7255 17.6355 16.3318 17.7955 15.8982C17.9327 15.5455 18.0955 15.0164 18.14 14.0409C18.1882 12.9864 18.1982 12.67 18.1982 10C18.1982 7.33 18.1882 7.01364 18.14 5.95909C18.0955 4.98364 17.9327 4.45455 17.7955 4.10182C17.6136 3.63545 17.3982 3.30182 17.0482 2.95182C16.7254 2.62006 16.3325 2.36474 15.8982 2.20455C15.5455 2.06727 15.0164 1.90455 14.0409 1.86ZM8.72273 13.0827C10.1938 13.6951 11.8925 13.1814 12.7778 11.8566C13.6631 10.5317 13.4877 8.76572 12.3591 7.64091C11.4048 6.68721 9.97005 6.40212 8.72364 6.91852C7.47723 7.43492 6.6645 8.65117 6.6643 10.0003C6.6641 11.3495 7.47647 12.566 8.72273 13.0827ZM6.36545 6.36545C7.66395 5.06696 9.55655 4.55984 11.3303 5.03512C13.1041 5.5104 14.4896 6.89588 14.9649 8.66966C15.4402 10.4434 14.933 12.336 13.6345 13.6345C11.6272 15.6418 8.37276 15.6418 6.36545 13.6345C4.35815 11.6272 4.35815 8.37276 6.36545 6.36545ZM16.28 5.62545C16.602 5.32168 16.7334 4.86685 16.623 4.43815C16.5126 4.00945 16.1778 3.67469 15.7491 3.56427C15.3204 3.45385 14.8656 3.58525 14.5618 3.90727C14.1107 4.38554 14.1216 5.13586 14.5865 5.60077C15.0514 6.06567 15.8017 6.07661 16.28 5.62545Z" fill="#212165"/>
</svg>
