<svg width="18" height="18" viewBox="0 0 18 18" fill="none" xmlns="http://www.w3.org/2000/svg" preserveAspectRatio="none" >
<path fill-rule="evenodd" clip-rule="evenodd" d="M12.4065 3.78618C11.3463 1.47871 9.03937 -5.46383e-05 6.49999 1.94186e-08C3.62061 -0.000221448 1.08422 1.89394 0.266868 4.65488C-0.550487 7.41581 0.546 10.3855 2.96146 11.9527C5.37693 13.52 8.53566 13.3114 10.724 11.44L16.369 17.085L17.076 16.378L11.432 10.734C13.0861 8.80725 13.4667 6.09364 12.4065 3.78618ZM0.999986 6.5C0.999986 3.46243 3.46242 1 6.49999 1C9.53755 1 12 3.46243 12 6.5C12 9.53757 9.53755 12 6.49999 12C3.46242 12 0.999986 9.53757 0.999986 6.5Z" fill="#212165"/>
</svg>
