<svg width="22" height="22" viewBox="0 0 22 22" fill="none" xmlns="http://www.w3.org/2000/svg" preserveAspectRatio="none" >
<path fill-rule="evenodd" clip-rule="evenodd" d="M18.7946 3.19714C16.7265 1.13652 13.9761 0.00120849 11.046 0C5.0082 0 0.0943111 4.89025 0.0918825 10.9008C0.091073 12.8221 0.595415 14.6977 1.55404 16.351L0 22L5.80695 20.484C7.407 21.3526 9.20835 21.8104 11.0416 21.8109H11.0461C17.0833 21.8109 21.9977 16.9203 22 10.9095C22.0012 7.99648 20.8629 5.25763 18.7946 3.19714ZM11.046 19.9699H11.0422C9.40858 19.9692 7.80637 19.5323 6.4083 18.7068L6.07598 18.5104L2.63005 19.4101L3.54982 16.0664L3.33327 15.7236C2.42187 14.2809 1.9406 12.6135 1.94141 10.9014C1.9433 5.90565 6.02768 1.84121 11.0496 1.84121C13.4815 1.84202 15.7675 2.78572 17.4864 4.49843C19.2053 6.21113 20.1514 8.48767 20.1506 10.9088C20.1484 15.905 16.0643 19.9699 11.046 19.9699ZM14.1697 12.2974C14.4207 12.3884 15.7664 13.0472 16.04 13.1836C16.0938 13.2104 16.144 13.2345 16.1905 13.2569C16.3809 13.3485 16.5096 13.4104 16.5645 13.5017C16.633 13.6155 16.633 14.1608 16.405 14.7971C16.1767 15.4333 15.0834 16.014 14.5575 16.0923C14.0858 16.1624 13.4893 16.1917 12.8336 15.9844C12.436 15.8588 11.9262 15.6914 11.2732 15.4105C8.70748 14.308 6.97337 11.833 6.64559 11.3652C6.62262 11.3324 6.60656 11.3095 6.5976 11.2976L6.59515 11.2943C6.4495 11.1008 5.48003 9.81277 5.48003 8.47975C5.48003 7.22509 6.09913 6.56753 6.38419 6.26477C6.40375 6.24399 6.42174 6.22489 6.43785 6.20737C6.6888 5.93452 6.98537 5.86644 7.16778 5.86644C7.35033 5.86644 7.53288 5.86805 7.69236 5.87598C7.712 5.87695 7.73242 5.87683 7.75352 5.87671C7.9131 5.87577 8.1119 5.87461 8.30828 6.34353C8.38325 6.5229 8.49275 6.78824 8.60838 7.06846C8.84445 7.64053 9.10613 8.27467 9.15196 8.36615C9.2205 8.50244 9.26624 8.66156 9.17489 8.84337C9.08369 9.02505 8.78699 9.40895 8.4907 9.77512C8.47803 9.79076 8.46495 9.80622 8.45188 9.82168C8.33972 9.95431 8.22779 10.0867 8.37062 10.331C8.53037 10.6036 9.07964 11.4956 9.89322 12.2179C10.7682 12.9945 11.5285 13.3227 11.9137 13.489C11.9888 13.5214 12.0497 13.5477 12.0944 13.5699C12.3681 13.7064 12.5276 13.6835 12.6873 13.5017C12.8471 13.32 13.3715 12.7064 13.5541 12.4338C13.7364 12.1612 13.9191 12.2065 14.1697 12.2974Z" fill="black"/>
</svg>
