<svg width="19" height="17" viewBox="0 0 19 17" fill="none" xmlns="http://www.w3.org/2000/svg" preserveAspectRatio="none" >
<path fill-rule="evenodd" clip-rule="evenodd" d="M18.7418 3.62623C19.3525 5.50406 18.8579 7.56573 17.4617 8.96206V8.96306L9.49969 16.9231L1.53769 8.96206C0.141466 7.56573 -0.353168 5.50406 0.257522 3.62623C0.868213 1.74841 2.48093 0.372072 4.4314 0.0641271C6.38187 -0.243818 8.34017 0.56872 9.49969 2.16706C10.6592 0.56872 12.6175 -0.243818 14.568 0.0641271C16.5184 0.372072 18.1312 1.74841 18.7418 3.62623ZM1.25819 3.78652C0.689633 5.33998 1.07412 7.08219 2.24369 8.25206V8.25306L9.49969 15.5101L16.7557 8.25206C17.9253 7.08219 18.3097 5.33998 17.7412 3.78652C17.1726 2.23307 15.7543 1.15066 14.1059 1.01217C12.4575 0.873671 10.8785 1.70425 10.0587 3.14106H8.94069C8.12089 1.70425 6.54188 0.873671 4.89346 1.01217C3.24504 1.15066 1.82675 2.23307 1.25819 3.78652Z" fill="#212165"/>
</svg>
